<svg id="Group_116" data-name="Group 116" xmlns="http://www.w3.org/2000/svg" width="14.199" height="16.228" viewBox="0 0 14.199 16.228">
  <path d="M10.142,14.2v1.268a.761.761,0,0,1-.761.761H.761A.761.761,0,0,1,0,15.467V3.8a.761.761,0,0,1,.761-.761H3.043v9.382A1.777,1.777,0,0,0,4.818,14.2Zm0-10.9V0H4.818a.761.761,0,0,0-.761.761V12.424a.761.761,0,0,0,.761.761h8.621a.761.761,0,0,0,.761-.761V4.057H10.9A.763.763,0,0,1,10.142,3.3Zm3.834-.983L11.886.223A.761.761,0,0,0,11.349,0h-.192V3.043H14.2V2.851a.761.761,0,0,0-.223-.538Z" fill="#9292ac"/>
</svg>
