<svg xmlns="http://www.w3.org/2000/svg" width="2em" height="2em" viewBox="0 0 45.6 34.586">
  <path d="M39.764,21.141h9.115V13.925H39.764A17.326,17.326,0,0,0,23.172,26.334a25.691,25.691,0,0,1,.626-4.806,4.568,4.568,0,0,0-1.244-4.294,17.206,17.206,0,0,0-10.16-3.308H3.279v7.216h9.115a10.073,10.073,0,0,1,0,20.146H3.279v7.223h9.115A17.326,17.326,0,0,0,28.986,36.1a25.9,25.9,0,0,1-.626,4.806A4.558,4.558,0,0,0,29.6,45.2a17.206,17.206,0,0,0,10.16,3.308h9.115V41.293H39.764a10.073,10.073,0,1,1,0-20.146Z" transform="translate(-3.279 -13.925)" fill="#46df88"/>
</svg>
